<svg width="600" height="150" viewBox="0 0 600 150" xmlns="http://www.w3.org/2000/svg">
  <!-- ========================================== -->
  <!-- RAVEN INTELLIGENCE COMPANY VECTOR LOGO     -->
  <!-- ========================================== -->

  <!-- RAVEN GEOMETRIC HEAD -->
  <g transform="translate(10, 20)">
    <!-- Beak Upper -->
    <path d="M 0 50 L 40 40 L 70 45 Z" fill="#8A8A8A"/>
    <!-- Beak Lower -->
    <path d="M 15 55 L 50 50 L 70 45 Z" fill="#5A5A5A"/>
    
    <!-- Forehead -->
    <path d="M 70 45 L 60 20 L 90 5 L 120 15 L 140 40 L 105 50 Z" fill="#3A3A3A"/>
    <!-- Back of head -->
    <path d="M 140 40 L 160 70 L 130 90 L 105 50 Z" fill="#2A2A2A"/>
    <!-- Jaw / Cheek -->
    <path d="M 70 45 L 105 50 L 130 90 L 90 120 L 80 80 Z" fill="#4A4A4A"/>
    <!-- Neck details -->
    <path d="M 90 120 L 130 90 L 120 130 Z" fill="#1A1A1A"/>
    
    <!-- Bright Eye -->
    <polygon points="105,30 118,25 115,40" fill="#C8E600"/>
    <circle cx="112" cy="32" r="3" fill="#FFFFFF"/>

    <!-- Cyber Node Element (The 3 dots in hexagon) -->
    <g transform="translate(75, 75)">
      <!-- Hexagon wireframe -->
      <polygon points="0,-15 13,-7 13,8 0,16 -13,8 -13,-7" fill="none" stroke="#8FB300" stroke-width="1.5"/>
      <!-- Vertical connecting line -->
      <line x1="0" y1="-25" x2="0" y2="25" stroke="#C8E600" stroke-width="2"/>
      <!-- Nodes (Dots) -->
      <circle cx="0" cy="-15" r="4" fill="#C8E600"/>
      <circle cx="0" cy="0" r="4" fill="#C8E600"/>
      <circle cx="0" cy="15" r="4" fill="#C8E600"/>
    </g>
  </g>

  <!-- TYPOGRAPHY -->
  <g font-family="'Inter', 'Helvetica Neue', sans-serif">
    <!-- Main Title -->
    <text x="180" y="75" font-size="52" font-weight="900" fill="#FFFFFF" letter-spacing="-1">RAVEN</text>
    <text x="360" y="75" font-size="42" font-weight="800" fill="#C8E600" letter-spacing="-1">INTELLIGENCE COMPANY</text>
    
    <!-- Subtitle -->
    <text x="185" y="115" font-size="28" font-weight="700" fill="#C8E600" letter-spacing="1">DATA</text>
    <text x="275" y="115" font-size="28" font-weight="300" fill="#A1A1AA" letter-spacing="1">BUSINESS</text>
  </g>
</svg>
